<svg xmlns="http://www.w3.org/2000/svg" viewBox="0 0 75.5 75.5"><defs><style>.cls-1{fill:none;stroke:#4d4d4d;stroke-miterlimit:10;stroke-width:2px;}.cls-2{fill:#f4275d;}</style></defs><title>Asset 1</title><g id="Layer_2" data-name="Layer 2"><g id="Layer_1-2" data-name="Layer 1"><path class="cls-1" d="M12.75,29.45V27.62a.75.75,0,0,0-1.28-.53L1.22,37.21a.75.75,0,0,0,0,1.07L11.47,48.41a.75.75,0,0,0,1.28-.53V29.45Z"/><path class="cls-1" d="M62.74,46v1.83a.75.75,0,0,0,1.28.53L74.27,38.28a.75.75,0,0,0,0-1.07L64,27.09a.75.75,0,0,0-1.28.53V46Z"/><path class="cls-1" d="M29.45,62.74H27.62A.75.75,0,0,0,27.09,64L37.21,74.27a.75.75,0,0,0,1.07,0L48.41,64a.75.75,0,0,0-.53-1.28H29.45Z"/><path class="cls-1" d="M46,12.75h1.83a.75.75,0,0,0,.53-1.28L38.28,1.22a.75.75,0,0,0-1.07,0L27.09,11.47a.75.75,0,0,0,.53,1.28H46Z"/><circle class="cls-2" cx="37.75" cy="37.75" r="7.48"/></g></g></svg>